<svg xmlns="http://www.w3.org/2000/svg" xmlns:xlink="http://www.w3.org/1999/xlink" width="1524" height="480" fill="none" viewBox="0 0 1524 480"><linearGradient id="a" x1="732.38" x2="822.78" y1="0" y2="350.495" gradientUnits="userSpaceOnUse"><stop offset="0" stop-color="#e1f3ff"/><stop offset="1" stop-color="#fff"/></linearGradient><path fill="url(#a)" d="m0 0h1523.65v480h-1523.65z"/><g stroke-linecap="round" stroke-width="4"><path stroke="#181c1f" d="m705.826 218v-20"/><path stroke="#181c1f" d="m705.826 250v-20"/><path stroke="#307f98" d="m769.826 246v4"/><path stroke="#307f98" d="m769.826 230v4"/><path stroke="#307f98" d="m753.826 246v4"/><path stroke="#307f98" d="m753.826 230v4"/><path stroke="#307f98" d="m769.826 198v4"/><path stroke="#307f98" d="m769.826 182v4"/><path stroke="#307f98" d="m753.826 198v4"/><path stroke="#307f98" d="m753.826 182v4"/><path stroke="#307f98" d="m769.826 278v4"/><path stroke="#307f98" d="m769.826 262v4"/><path stroke="#307f98" d="m753.826 278v4"/><path stroke="#307f98" d="m753.826 262v4"/><path stroke="#181c1f" d="m817.826 250v-20"/><path stroke="#181c1f" d="m717.826 266 18 18"/><path stroke="#181c1f" d="m805.826 266-18 18"/><path stroke="#181c1f" d="m805.826 186-18 18"/><path stroke="#181c1f" d="m717.826 186 18 18"/><path stroke="#181c1f" d="m817.826 198v20"/><path stroke="#181c1f" d="m747.825 296c3.557 3.63 8.516 6 14.001 6 5.484 0 10.442-2.37 14-6"/><path stroke="#181c1f" d="m747.825 216c3.557 3.63 8.516 6 14.001 6 5.484 0 10.442-2.37 14-6"/></g></svg>