<svg xmlns="http://www.w3.org/2000/svg" width="800" height="450" fill="none" viewBox="0 0 800 450"><rect width="800" height="450" fill="url(#paint0_linear_5680_64)"/><path stroke="#D33D3D" stroke-linecap="round" stroke-width="5" d="M425.848 209.758C431.384 219.131 431.384 230.869 425.848 240.242"/><path stroke="#181C1F" stroke-linecap="round" stroke-width="5" d="M352.27 272.729L369.948 255.052"/><path stroke="#D33D3D" stroke-linecap="round" stroke-width="5" d="M374.152 209.758C368.616 219.131 368.616 230.869 374.152 240.242"/><path stroke="#D33D3D" stroke-linecap="round" stroke-width="5" d="M415.242 199.152C405.869 193.616 394.131 193.616 384.758 199.152"/><path stroke="#D33D3D" stroke-linecap="round" stroke-width="5" d="M415.242 250.848C405.869 256.384 394.131 256.384 384.758 250.848"/><path stroke="#181C1F" stroke-linecap="round" stroke-width="5" d="M430.052 194.948L447.73 177.27"/><path stroke="#181C1F" stroke-linecap="round" stroke-width="5" d="M352.27 177.27L369.948 194.948"/><path stroke="#181C1F" stroke-linecap="round" stroke-width="5" d="M430.052 255.052L447.73 272.729"/><circle cx="400" cy="225" r="81.563" stroke="#D33D3D" stroke-dasharray="25 15" stroke-linecap="round" stroke-linejoin="bevel" stroke-width="5"/><path stroke="#181C1F" stroke-linecap="round" stroke-width="5" d="M465.303 157.197L468.839 153.661"/><path stroke="#181C1F" stroke-linecap="round" stroke-width="5" d="M333.134 157.197L329.599 153.661"/><path stroke="#181C1F" stroke-linecap="round" stroke-width="5" d="M333.134 291.997L329.599 295.533"/><path stroke="#181C1F" stroke-linecap="round" stroke-width="5" d="M465.303 291.997L468.839 295.533"/><defs><linearGradient id="paint0_linear_5680_64" x1="377.262" x2="424.55" y1="0" y2="240.166" gradientUnits="userSpaceOnUse"><stop stop-color="#FFE4E3"/><stop offset="1" stop-color="#fff"/></linearGradient></defs></svg>