<svg xmlns="http://www.w3.org/2000/svg" width="800" height="450" fill="none" viewBox="0 0 800 450"><rect width="800" height="450" fill="url(#paint0_linear_6312_2141)"/><path stroke="#fff" stroke-linecap="round" stroke-width="5" d="M407.5 155L432.5 155"/><path stroke="#fff" stroke-linecap="round" stroke-width="5" d="M369.999 177.5L369.999 160C369.999 157.239 372.238 155 374.999 155H392.499"/><path stroke="#fff" stroke-linecap="round" stroke-width="5" d="M329.999 217.5L329.999 200C329.999 197.239 332.238 195 334.999 195H352.499"/><path stroke="#fff" stroke-linecap="round" stroke-width="5" d="M369.999 232.5L369.999 250C369.999 252.761 372.238 255 374.999 255H392.499"/><path stroke="#fff" stroke-linecap="round" stroke-width="5" d="M329.999 272.5L329.999 290C329.999 292.761 332.238 295 334.999 295H352.499"/><path stroke="#fff" stroke-linecap="round" stroke-width="5" d="M470.001 232.5L470.001 250C470.001 252.761 467.762 255 465.001 255H447.501"/><path stroke="#fff" stroke-linecap="round" stroke-width="5" d="M430.001 272.5L430.001 290C430.001 292.761 427.762 295 425.001 295H407.501"/><path stroke="#fff" stroke-linecap="round" stroke-width="5" d="M407.5 255L432.5 255"/><path stroke="#fff" stroke-linecap="round" stroke-width="5" d="M367.5 295L392.5 295"/><path stroke="#fff" stroke-linecap="round" stroke-width="5" d="M470 212.5L470 217.5"/><path stroke="#fff" stroke-linecap="round" stroke-width="5" d="M470 192.5L470 197.5"/><path stroke="#fff" stroke-linecap="round" stroke-width="5" d="M370 212.5L370 217.5"/><path stroke="#fff" stroke-linecap="round" stroke-width="5" d="M370 192.5L370 197.5"/><path stroke="#fff" stroke-linecap="round" stroke-width="5" d="M330 252.5L330 257.5"/><path stroke="#fff" stroke-linecap="round" stroke-width="5" d="M330 232.5L330 237.5"/><path stroke="#fff" stroke-linecap="round" stroke-width="5" d="M447.5 155.945C458.042 158.658 466.342 166.958 469.055 177.5"/><path stroke="#89C6DA" stroke-linecap="round" stroke-width="5" d="M412.5 185H407.5"/><path stroke="#89C6DA" stroke-linecap="round" stroke-width="5" d="M432.5 185H427.5"/><path stroke="#89C6DA" stroke-linecap="round" stroke-width="5" d="M412.5 225H407.5"/><path stroke="#89C6DA" stroke-linecap="round" stroke-width="5" d="M432.5 225H427.5"/><defs><linearGradient id="paint0_linear_6312_2141" x1="795.549" x2="-34.159" y1="0" y2="361.346" gradientUnits="userSpaceOnUse"><stop offset=".518" stop-color="#262930"/><stop offset="1" stop-color="#3F424A"/></linearGradient></defs></svg>