<svg xmlns="http://www.w3.org/2000/svg" width="800" height="450" fill="none" viewBox="0 0 800 450"><rect width="800" height="450" fill="url(#paint0_linear_6312_2178)"/><path stroke="#fff" stroke-linecap="round" stroke-width="5" d="M448.75 234.695C459.292 237.408 467.592 245.708 470.305 256.25"/><path stroke="#fff" stroke-linecap="round" stroke-width="5" d="M352.5 214.055C341.958 211.342 333.658 203.042 330.945 192.5"/><path stroke="#89C6DA" stroke-linecap="round" stroke-width="5" d="M410 180L411.25 175"/><path stroke="#89C6DA" stroke-linecap="round" stroke-width="5" d="M430 156.25L435 155"/><path stroke="#89C6DA" stroke-linecap="round" stroke-width="5" d="M416.25 165L420 161.25"/><path stroke="#fff" stroke-linecap="round" stroke-width="5" d="M387.5 215L392.5 215"/><path stroke="#fff" stroke-linecap="round" stroke-width="5" d="M367.5 215L372.5 215"/><path stroke="#89C6DA" stroke-linecap="round" stroke-width="5" d="M410 217.5L410 192.5"/><path stroke="#fff" stroke-linecap="round" stroke-width="5" d="M390 257.5L390 232.5"/><path stroke="#fff" stroke-linecap="round" stroke-width="5" d="M367.5 155.945C378.042 158.658 386.342 166.958 389.055 177.5"/><path stroke="#fff" stroke-linecap="round" stroke-width="5" d="M352.5 235.945C341.958 238.658 333.658 246.958 330.945 257.5"/><path stroke="#89C6DA" stroke-linecap="round" stroke-width="5" d="M447.5 214.055C458.042 211.342 466.342 203.042 469.055 192.5"/><path stroke="#fff" stroke-linecap="round" stroke-width="5" d="M433.75 295.305C423.208 292.592 414.908 284.292 412.195 273.75"/><path stroke="#89C6DA" stroke-linecap="round" stroke-width="5" d="M447.5 155.945C458.042 158.658 466.342 166.958 469.055 177.5"/><path stroke="#fff" stroke-linecap="round" stroke-width="5" d="M352.5 155.945C341.958 158.658 333.658 166.958 330.945 177.5"/><path stroke="#fff" stroke-linecap="round" stroke-width="5" d="M352.5 294.055C341.958 291.342 333.658 283.042 330.945 272.5"/><path stroke="#fff" stroke-linecap="round" stroke-width="5" d="M448.75 295.305C459.292 292.592 467.592 284.292 470.305 273.75"/><path stroke="#fff" stroke-linecap="round" stroke-width="5" d="M390 270L388.75 275"/><path stroke="#fff" stroke-linecap="round" stroke-width="5" d="M370 293.75L365 295"/><path stroke="#fff" stroke-linecap="round" stroke-width="5" d="M383.75 285L380 288.75"/><path stroke="#fff" stroke-linecap="round" stroke-width="5" d="M428.75 236.25L433.75 236.25"/><path stroke="#fff" stroke-linecap="round" stroke-width="5" d="M408.75 236.25L413.75 236.25"/><defs><linearGradient id="paint0_linear_6312_2178" x1="795.549" x2="-34.159" y1="0" y2="361.346" gradientUnits="userSpaceOnUse"><stop offset=".518" stop-color="#262930"/><stop offset="1" stop-color="#3F424A"/></linearGradient></defs></svg>